<svg xmlns="http://www.w3.org/2000/svg" xmlns:xlink="http://www.w3.org/1999/xlink" width="335.306" height="56.298" viewBox="0 0 335.306 56.298"><defs><linearGradient id="a" x1="0.5" y1="1" x2="0.5" gradientUnits="objectBoundingBox"><stop offset="0" stop-color="#99d7be"/><stop offset="1" stop-color="#34ab8f"/></linearGradient><linearGradient id="b" x1="3.257" y1="1.032" x2="3.257" y2="-0.005" gradientUnits="objectBoundingBox"><stop offset="0.708" stop-color="#34ab8f"/><stop offset="1" stop-color="#34ab8f"/></linearGradient><linearGradient id="c" x1="2.228" y1="2.276" x2="2.228" y2="-1.147" xlink:href="#b"/><linearGradient id="d" x1="1.779" y1="1.027" x2="1.779" y2="0" xlink:href="#b"/><linearGradient id="e" x1="0.556" y1="1.037" x2="0.556" y2="-0.026" xlink:href="#b"/><linearGradient id="f" x1="-0.289" y1="1" x2="-0.289" y2="-0.031" xlink:href="#b"/><linearGradient id="g" x1="-1.133" y1="1.022" x2="-1.133" y2="-0.002" xlink:href="#b"/><linearGradient id="h" x1="-2.266" y1="1.023" x2="-2.266" y2="-0.023" xlink:href="#b"/></defs><g transform="translate(-1436.232 -1019.731)"><path d="M1745.255,1023.463h-282.74a26.283,26.283,0,0,0,0,52.566h282.74a26.283,26.283,0,0,0,0-52.566Z" fill="#34ab8f"/><path d="M1745.255,1019.731h-282.74a26.283,26.283,0,0,0,0,52.566h282.74a26.283,26.283,0,0,0,0-52.566Z" fill="#34ab8f"/><path d="M1745.255,1019.731h-282.74a26.283,26.283,0,0,0,0,52.566h282.74a26.283,26.283,0,0,0,0-52.566Z" fill="url(#a)"/><path d="M1745.255,1067.948h-282.74a24.682,24.682,0,0,1-24.613-23.293c-.025.45-.039.9-.039,1.359a24.679,24.679,0,0,0,24.652,24.652h282.74a24.68,24.68,0,0,0,24.652-24.652c0-.456-.015-.909-.04-1.359A24.681,24.681,0,0,1,1745.255,1067.948Z" fill="#fff"/><path d="M1542.521,1055.723a2.239,2.239,0,0,1-1.632-.7,5.107,5.107,0,0,0-.614-.45,2.241,2.241,0,0,1-.147-3.683,11.843,11.843,0,0,0,4.124-5.68h-2.118a2.24,2.24,0,0,1-2.239-2.24v-1.23a2.239,2.239,0,0,1,2.239-2.239h3.364c.062-.613.106-1.232.146-1.9a2.238,2.238,0,0,1,2.235-2.1q.09,0,.18.006l1.817.147a2.241,2.241,0,0,1,2.052,2.427,2.526,2.526,0,0,1-.549,1.374l0,.047h3.006a2.231,2.231,0,0,1,.7-.111,2.254,2.254,0,0,1,.747.128l.935.331a2.242,2.242,0,0,1,1.3,3.025c-.354,7.081-1.144,9.278-1.715,10.315a4.723,4.723,0,0,1-4.368,2.483,21.232,21.232,0,0,1-3.73-.466,2.238,2.238,0,0,1-1.788-2.354,16.232,16.232,0,0,1-2.59,2.426A2.23,2.23,0,0,1,1542.521,1055.723Zm6.186-6.258a2.288,2.288,0,0,1,.419.054,20.608,20.608,0,0,0,2.269.37,26.62,26.62,0,0,0,.678-4.683h-1.734A22.273,22.273,0,0,1,1548.707,1049.465Z" fill="url(#b)"/><path d="M1559.4,1048.546a2.235,2.235,0,0,1-2.234-2.089l-.111-1.653a2.237,2.237,0,0,1,2.235-2.388h15.328a2.239,2.239,0,0,1,2.239,2.239v1.3a2.24,2.24,0,0,1-2.239,2.24h-13.889a3.261,3.261,0,0,1-.984.322A2.251,2.251,0,0,1,1559.4,1048.546Z" fill="url(#c)"/><path d="M1580.222,1055.815a2.24,2.24,0,0,1-2.239-2.239v-15.952a2.239,2.239,0,0,1,2.239-2.239c.044,0,.089,0,.133,0l1.853.11a2.24,2.24,0,0,1,2.1,2.442,2.552,2.552,0,0,1-.468,1.268v2.24c2.005.8,4.319,1.849,5.986,2.731a2.24,2.24,0,0,1,.876,3.127l-.735,1.231a2.241,2.241,0,0,1-2.986.823c-.919-.5-2.023-1.042-3.141-1.559v5.774a2.24,2.24,0,0,1-2.239,2.239Z" fill="url(#d)"/><path d="M1593.608,1055.631a2.238,2.238,0,0,1-2.12-1.523,21.885,21.885,0,0,1-.925-7.03,55.143,55.143,0,0,1,1.01-9.347,2.24,2.24,0,0,1,2.58-1.8l1.927.33a1.93,1.93,0,0,0,2.764,2.171,57.767,57.767,0,0,0,7.675-.665,2.323,2.323,0,0,1,.381-.032,2.24,2.24,0,0,1,2.231,2.05l.11,1.285a2.239,2.239,0,0,1-1.859,2.4c-1.249.211-2.832.375-4.353.492a2.24,2.24,0,0,1,.161,3.258,5.471,5.471,0,0,0-.832,1.029,13.438,13.438,0,0,0,2.687.19c.665,0,1.428-.03,2.207-.086.054,0,.108-.006.161-.006a2.239,2.239,0,0,1,2.24,2.272l-.019,1.3a2.24,2.24,0,0,1-2.113,2.205c-.7.039-1.424.057-2.145.057a27.381,27.381,0,0,1-3.736-.224,6.335,6.335,0,0,1-4.251-2.3c-.124.292-.222.537-.282.731a1.579,1.579,0,0,0-.039.159,2.26,2.26,0,0,1-1.752,2.811l-1.3.238A2.231,2.231,0,0,1,1593.608,1055.631Zm2.842-10.573a2.235,2.235,0,0,1,.86.517,11.7,11.7,0,0,1,1.035-1.476,2.242,2.242,0,0,1-1.607-1.717C1596.607,1043.337,1596.511,1044.249,1596.45,1045.058Z" fill="url(#e)"/><path d="M1610.687,1056.366a2.242,2.242,0,0,1-1.643-.716,6.628,6.628,0,0,0-.674-.627,2.242,2.242,0,0,1,.254-3.818c3.166-1.649,5.243-4.742,6.337-9.451h-1.888a2.24,2.24,0,0,1-2.24-2.239v-1.248a2.24,2.24,0,0,1,2.24-2.239h4.356a2.107,2.107,0,0,1,.287-.019h1.249a2.24,2.24,0,0,1,2.24,2.24c0,2.2,0,8.882,6.742,12.887a2.239,2.239,0,0,1,.253,3.676,5,5,0,0,0-.559.588,2.276,2.276,0,0,1-1.844.942,2.2,2.2,0,0,1-1.148-.32,18.358,18.358,0,0,1-6.42-6.514,16.463,16.463,0,0,1-6.46,6.578A2.227,2.227,0,0,1,1610.687,1056.366Z" fill="url(#f)"/><path d="M1631.617,1055.907a2.24,2.24,0,0,1-2.24-2.279c0-.209.006-.581.007-1.051a2.245,2.245,0,0,1-1.09.283,2.172,2.172,0,0,1-.29-.019,2.242,2.242,0,0,1-1.654-1.109l-.661-1.156a2.24,2.24,0,0,1,.411-2.744,17.766,17.766,0,0,0,2.5-2.98l-.27,0a2.24,2.24,0,0,1-2.239-2.207l-.018-1.3a2.238,2.238,0,0,1,2.239-2.271c.461,0,.894-.014,1.281-.034.016-.4.035-.871.062-1.478a2.24,2.24,0,0,1,2.237-2.142c.058,0,.116,0,.174.007l1.89.148a2.24,2.24,0,0,1,2.029,2.638,2.652,2.652,0,0,1-.245.722,7.105,7.105,0,0,1,2.962-.761c2.334,0,4.828,1.466,4.828,5.58,0,.3-.021.594-.044.89-.09,1.133-.2,2.5-.258,3.687a2.239,2.239,0,0,1,3.283,1.756c.023.227.146.863.193,1.04a2.24,2.24,0,0,1-.85,2.389,7.772,7.772,0,0,1-4.2,1.619c-1.6,0-4.3-.658-4.3-5.066,0-.223,0-.9.311-5.79a12.011,12.011,0,0,0-2.551,1.887c0,2.462,0,5.276.019,7.484a2.24,2.24,0,0,1-2.239,2.256Z" fill="url(#g)"/><path d="M1654.263,1055.907c-3.985,0-5.941-2.052-6.224-4.247a2.271,2.271,0,0,1-.636.116h-.078a2.24,2.24,0,0,1-1.583-.656l-.937-.937a2.238,2.238,0,0,1-.034-3.132c.961-1,3-2.987,5.041-4.941l-.067,0a3.066,3.066,0,0,1-.623.234,2.24,2.24,0,0,1-2.779-1.96l-.147-1.56a2.239,2.239,0,0,1,2.213-2.451c2.388-.017,6.474-.183,7.944-.342a2.239,2.239,0,0,1,2.638.634l.972,1.193a2.239,2.239,0,0,1-.327,3.156,2.927,2.927,0,0,1-.775.447c-.208.179-.45.392-.717.63a6.266,6.266,0,0,1,4.967,6.415C1663.111,1052.865,1659.472,1055.907,1654.263,1055.907Z" fill="url(#h)"/><path d="M1556.011,1041.957a.612.612,0,0,1-.165.238c-.238,5.287-.752,8.609-1.468,9.912a2.512,2.512,0,0,1-2.405,1.322,19.471,19.471,0,0,1-3.285-.422,6.234,6.234,0,0,0-.056-1.3,19.276,19.276,0,0,0,3.213.459,1.372,1.372,0,0,0,1.413-.864c.551-1.119,1.01-4.2,1.194-8.333h-5.874c-.918,4.387-2.736,8.022-6.058,10.518a6.359,6.359,0,0,0-1.047-.808c3.176-2.385,4.847-5.525,5.728-9.71h-5.067v-1.23h5.323a35.413,35.413,0,0,0,.422-4l1.818.146c-.018.2-.184.312-.459.33-.11,1.34-.2,2.35-.4,3.525h5.948l.294-.111Z" fill="#fff"/><path d="M1559.287,1044.655h15.328v1.3h-14.63a.85.85,0,0,1-.588.349Z" fill="#fff"/><path d="M1588.041,1047.39a66.1,66.1,0,0,0-6.443-2.992v9.178h-1.376v-15.952l1.854.111c-.019.2-.165.33-.478.385v5.36l.275-.386a63.586,63.586,0,0,1,6.9,3.066Z" fill="#fff"/><path d="M1595.7,1038.468c-.056.2-.24.313-.607.294a44.082,44.082,0,0,0-.973,8.261,20.178,20.178,0,0,0,.239,3.635c.349-.9,1.138-2.827,1.395-3.47l.771.808c-.752,1.853-1.3,2.9-1.56,3.726a3.138,3.138,0,0,0-.147.862,1.952,1.952,0,0,0,.092.57l-1.3.238a20.123,20.123,0,0,1-.808-6.314,53.629,53.629,0,0,1,.973-8.94Zm11.692,13.419c-.66.037-1.34.055-2.019.055a25.385,25.385,0,0,1-3.415-.2c-2.257-.331-3.3-1.579-3.3-3.048a5.606,5.606,0,0,1,1.725-3.543l1.194.515a4.337,4.337,0,0,0-1.561,2.881c0,2.129,3.12,2.129,5.029,2.129.772,0,1.6-.036,2.368-.092Zm-8.5-11.216a59.811,59.811,0,0,0,8-.7l.109,1.285a69.523,69.523,0,0,1-8.076.679Z" fill="#fff"/><path d="M1617.716,1038.249h1.249c0,3.285.422,10.408,7.838,14.813a6.719,6.719,0,0,0-.991,1.046,16.28,16.28,0,0,1-7.564-10.683c-1.321,4.9-3.708,8.573-7.562,10.7a8.436,8.436,0,0,0-1.028-.935c4.057-2.111,6.424-6.022,7.582-11.363l.752.183a19.017,19.017,0,0,1-.239-2.5h-4.68v-1.248h4.643Z" fill="#fff"/><path d="M1628.312,1041.314a17.908,17.908,0,0,0,3.451-.275c.037-1.1.056-1.707.129-3.378l1.891.147c-.037.2-.2.33-.515.367-.073.808-.146,1.946-.183,2.625l.569.22a9.569,9.569,0,0,0-.735,2.625c2.02-1.891,4.259-3.23,5.783-3.23,1.725,0,2.588,1.21,2.588,3.34,0,.239-.018.478-.037.716-.128,1.615-.311,3.91-.311,5.378,0,1.1.128,1.69.9,1.69a4.985,4.985,0,0,0,2.442-1.231,12.7,12.7,0,0,0,.256,1.4,5.56,5.56,0,0,1-2.881,1.193c-1.542,0-2.057-.918-2.057-2.827,0-.954.331-6,.331-6.021,0-1.6-.551-2.313-1.45-2.313-1.377,0-3.69,1.487-5.6,3.506,0,2.662,0,5.929.019,8.425h-1.285c.018-1.064,0-6.3.018-7.47a19.118,19.118,0,0,1-3.341,4.424l-.661-1.157a18.6,18.6,0,0,0,4.038-5.544c0-.532.019-1.028.037-1.615a18.915,18.915,0,0,1-3.378.312Z" fill="#fff"/><path d="M1651.565,1045.168a11.121,11.121,0,0,1,4.552-1.064c2.919,0,4.755,1.707,4.755,4.405,0,3.323-2.919,5.158-6.609,5.158-2.387,0-4.02-.954-4.02-2.569a2.772,2.772,0,0,1,3.01-2.46,3.874,3.874,0,0,1,3.745,3.322,3.6,3.6,0,0,0,2.533-3.432c0-1.983-1.468-3.249-3.782-3.249a10.459,10.459,0,0,0-6.663,2.4c-.55.515-1.266,1.285-1.761,1.855l-.937-.937c1.652-1.726,6.9-6.736,9.4-9.067-1.065.146-4.737.293-6.83.367a.606.606,0,0,1-.384.275l-.148-1.56c2.479-.019,7.215-.2,8.555-.4l.275-.128.973,1.193a.889.889,0,0,1-.44.166c-1.3,1.064-4.791,4.332-6.223,5.708Zm2.533,7.343a8.036,8.036,0,0,0,1.67-.183,2.831,2.831,0,0,0-2.606-2.607c-.955,0-1.8.514-1.8,1.359C1651.363,1052.2,1652.886,1052.511,1654.1,1052.511Z" fill="#fff"/></g></svg>