<svg xmlns="http://www.w3.org/2000/svg" xmlns:xlink="http://www.w3.org/1999/xlink" width="368.164" height="56.298" viewBox="0 0 368.164 56.298"><defs><linearGradient id="a" x1="0.492" y1="1" x2="0.492" gradientUnits="objectBoundingBox"><stop offset="0" stop-color="#99d7be"/><stop offset="1" stop-color="#34ab8f"/></linearGradient><linearGradient id="b" x1="3.257" y1="1.032" x2="3.257" y2="-0.005" gradientUnits="objectBoundingBox"><stop offset="0.708" stop-color="#34ab8f"/><stop offset="1" stop-color="#34ab8f"/></linearGradient><linearGradient id="c" x1="2.228" y1="2.275" x2="2.228" y2="-1.147" xlink:href="#b"/><linearGradient id="d" x1="1.779" y1="1.027" x2="1.779" y2="0" xlink:href="#b"/><linearGradient id="e" x1="0.556" y1="1.037" x2="0.556" y2="-0.026" xlink:href="#b"/><linearGradient id="f" x1="-0.289" y1="1" x2="-0.289" y2="-0.031" xlink:href="#b"/><linearGradient id="g" x1="-1.133" y1="1.022" x2="-1.133" y2="-0.002" xlink:href="#b"/><linearGradient id="h" x1="-2.266" y1="1.023" x2="-2.266" y2="-0.023" xlink:href="#b"/></defs><g transform="translate(-1406.208 -788.428)"><path d="M1748.09,792.16h-315.6a26.283,26.283,0,0,0,0,52.566h315.6a26.283,26.283,0,0,0,0-52.566Z" fill="#34ab8f"/><path d="M1748.09,788.428h-315.6a26.283,26.283,0,0,0,0,52.566h315.6a26.283,26.283,0,0,0,0-52.566Z" fill="#34ab8f"/><path d="M1748.09,788.428h-315.6a26.283,26.283,0,0,0,0,52.566h315.6a26.283,26.283,0,0,0,0-52.566Z" fill="url(#a)"/><path d="M1748.09,836.645h-315.6a24.681,24.681,0,0,1-24.612-23.293c-.024.451-.039.9-.039,1.359a24.68,24.68,0,0,0,24.651,24.652h315.6a24.679,24.679,0,0,0,24.651-24.652c0-.456-.014-.908-.039-1.359A24.681,24.681,0,0,1,1748.09,836.645Z" fill="#fff"/><path d="M1545.356,824.42a2.239,2.239,0,0,1-1.632-.7,5.206,5.206,0,0,0-.614-.45,2.241,2.241,0,0,1-.147-3.683,11.843,11.843,0,0,0,4.124-5.68h-2.118a2.24,2.24,0,0,1-2.239-2.239v-1.231a2.24,2.24,0,0,1,2.239-2.239h3.364c.062-.612.106-1.232.146-1.9a2.24,2.24,0,0,1,2.235-2.1c.06,0,.12,0,.18.007l1.817.146a2.241,2.241,0,0,1,2.052,2.427,2.526,2.526,0,0,1-.549,1.374l0,.047h3.006a2.238,2.238,0,0,1,1.442.017l.935.331a2.241,2.241,0,0,1,1.3,3.025c-.354,7.081-1.144,9.278-1.715,10.315a4.724,4.724,0,0,1-4.368,2.484,21.245,21.245,0,0,1-3.73-.467,2.239,2.239,0,0,1-1.789-2.354,16.137,16.137,0,0,1-2.589,2.426A2.23,2.23,0,0,1,1545.356,824.42Zm6.186-6.257a2.2,2.2,0,0,1,.419.053,20.115,20.115,0,0,0,2.269.37,26.657,26.657,0,0,0,.678-4.683h-1.734A22.3,22.3,0,0,1,1551.542,818.163Z" fill="url(#b)"/><path d="M1562.232,817.244a2.239,2.239,0,0,1-2.235-2.09l-.11-1.653a2.239,2.239,0,0,1,2.235-2.388h15.328a2.24,2.24,0,0,1,2.239,2.239v1.3a2.24,2.24,0,0,1-2.239,2.239h-13.889a3.233,3.233,0,0,1-.984.322A2.247,2.247,0,0,1,1562.232,817.244Z" fill="url(#c)"/><path d="M1583.057,824.512a2.24,2.24,0,0,1-2.239-2.239V806.322a2.239,2.239,0,0,1,2.239-2.24c.044,0,.089,0,.133,0l1.853.111a2.237,2.237,0,0,1,2.1,2.441,2.558,2.558,0,0,1-.468,1.269v2.239c2.005.8,4.319,1.85,5.986,2.731a2.24,2.24,0,0,1,.876,3.127l-.735,1.231a2.239,2.239,0,0,1-1.925,1.092,2.21,2.21,0,0,1-1.061-.269c-.919-.5-2.024-1.042-3.141-1.559v5.774a2.24,2.24,0,0,1-2.239,2.239Z" fill="url(#d)"/><path d="M1596.443,824.329a2.24,2.24,0,0,1-2.12-1.524,21.88,21.88,0,0,1-.925-7.03,55.143,55.143,0,0,1,1.01-9.347,2.24,2.24,0,0,1,2.58-1.8l1.927.33a1.93,1.93,0,0,0,2.764,2.171,57.612,57.612,0,0,0,7.675-.665,2.324,2.324,0,0,1,.381-.032,2.24,2.24,0,0,1,2.231,2.05l.11,1.285a2.241,2.241,0,0,1-1.859,2.4c-1.249.21-2.832.375-4.353.492a2.239,2.239,0,0,1,.161,3.258,5.44,5.44,0,0,0-.832,1.028,13.443,13.443,0,0,0,2.687.19c.665,0,1.428-.03,2.207-.086.054,0,.108-.006.161-.006a2.24,2.24,0,0,1,2.24,2.272l-.019,1.3a2.24,2.24,0,0,1-2.113,2.2c-.7.039-1.424.057-2.145.057a27.383,27.383,0,0,1-3.736-.224,6.335,6.335,0,0,1-4.251-2.3c-.124.292-.222.537-.282.731a1.546,1.546,0,0,0-.039.16,2.26,2.26,0,0,1-1.752,2.81l-1.3.238A2.233,2.233,0,0,1,1596.443,824.329Zm2.842-10.574a2.246,2.246,0,0,1,.86.517,11.69,11.69,0,0,1,1.035-1.476,2.239,2.239,0,0,1-1.607-1.716C1599.442,812.035,1599.346,812.947,1599.285,813.755Z" fill="url(#e)"/><path d="M1613.522,825.063a2.24,2.24,0,0,1-1.643-.716,6.747,6.747,0,0,0-.674-.627,2.242,2.242,0,0,1,.254-3.818c3.166-1.649,5.243-4.741,6.337-9.45h-1.888a2.24,2.24,0,0,1-2.24-2.24v-1.248a2.24,2.24,0,0,1,2.24-2.239h4.356a2.1,2.1,0,0,1,.287-.018h1.249a2.238,2.238,0,0,1,2.239,2.239c0,2.2,0,8.883,6.743,12.887a2.24,2.24,0,0,1,.253,3.676,5.073,5.073,0,0,0-.559.588,2.274,2.274,0,0,1-1.844.943,2.206,2.206,0,0,1-1.148-.321,18.356,18.356,0,0,1-6.42-6.513,16.481,16.481,0,0,1-6.46,6.578A2.237,2.237,0,0,1,1613.522,825.063Z" fill="url(#f)"/><path d="M1634.452,824.6a2.24,2.24,0,0,1-2.24-2.278c0-.209.006-.581.007-1.052a2.244,2.244,0,0,1-1.09.283,2.36,2.36,0,0,1-.29-.018,2.24,2.24,0,0,1-1.654-1.11l-.661-1.156a2.239,2.239,0,0,1,.411-2.743,17.827,17.827,0,0,0,2.5-2.981l-.271,0a2.239,2.239,0,0,1-2.238-2.207l-.018-1.3a2.238,2.238,0,0,1,2.239-2.271c.461,0,.894-.014,1.281-.034.016-.4.035-.87.062-1.478a2.239,2.239,0,0,1,2.237-2.141q.087,0,.174.006l1.89.148a2.24,2.24,0,0,1,2.029,2.639,2.644,2.644,0,0,1-.245.721,7.1,7.1,0,0,1,2.962-.76c2.334,0,4.828,1.465,4.828,5.58,0,.3-.021.593-.044.889-.09,1.133-.2,2.5-.258,3.688a2.238,2.238,0,0,1,3.283,1.756c.023.226.146.862.192,1.04a2.237,2.237,0,0,1-.849,2.388,7.772,7.772,0,0,1-4.2,1.619c-1.605,0-4.3-.658-4.3-5.066,0-.223,0-.9.311-5.79a11.988,11.988,0,0,0-2.551,1.888c0,2.462,0,5.275.019,7.483a2.24,2.24,0,0,1-2.239,2.256Z" fill="url(#g)"/><path d="M1657.1,824.6c-3.985,0-5.941-2.052-6.224-4.247a2.275,2.275,0,0,1-.636.116h-.078a2.235,2.235,0,0,1-1.583-.656l-.937-.937a2.238,2.238,0,0,1-.034-3.132c.961-1,3-2.987,5.041-4.941l-.067,0a2.948,2.948,0,0,1-.623.234,2.238,2.238,0,0,1-2.779-1.96l-.147-1.56a2.238,2.238,0,0,1,2.213-2.45c2.388-.018,6.474-.184,7.944-.343a2.238,2.238,0,0,1,2.638.635l.972,1.192a2.239,2.239,0,0,1-.327,3.156,2.96,2.96,0,0,1-.775.448c-.208.178-.45.391-.717.629a6.267,6.267,0,0,1,4.967,6.416C1665.946,821.562,1662.307,824.6,1657.1,824.6Z" fill="url(#h)"/><path d="M1558.846,810.654a.612.612,0,0,1-.165.238c-.238,5.287-.752,8.609-1.468,9.912a2.513,2.513,0,0,1-2.405,1.322,19.555,19.555,0,0,1-3.285-.421,6.252,6.252,0,0,0-.056-1.3,19.279,19.279,0,0,0,3.213.459,1.372,1.372,0,0,0,1.413-.863c.551-1.12,1.01-4.2,1.194-8.333h-5.874c-.918,4.386-2.736,8.021-6.058,10.517a6.3,6.3,0,0,0-1.047-.807c3.176-2.386,4.847-5.526,5.728-9.71h-5.067v-1.231h5.323a35.617,35.617,0,0,0,.422-4l1.818.147c-.018.2-.184.311-.459.33-.11,1.34-.2,2.349-.4,3.524h5.948l.294-.11Z" fill="#fff"/><path d="M1562.122,813.352h15.328v1.3h-14.63a.852.852,0,0,1-.588.348Z" fill="#fff"/><path d="M1590.876,816.087a66.312,66.312,0,0,0-6.443-2.992v9.178h-1.376V806.322l1.854.11c-.019.2-.165.33-.478.385v5.36l.275-.386a63.742,63.742,0,0,1,6.9,3.066Z" fill="#fff"/><path d="M1598.538,807.166c-.056.2-.24.312-.607.293a44,44,0,0,0-.973,8.261,20.171,20.171,0,0,0,.239,3.635c.349-.9,1.138-2.827,1.4-3.47l.771.808c-.752,1.853-1.3,2.9-1.56,3.726a3.143,3.143,0,0,0-.147.863,1.983,1.983,0,0,0,.091.569l-1.3.238a20.127,20.127,0,0,1-.808-6.314,53.638,53.638,0,0,1,.973-8.94Zm11.692,13.418c-.66.038-1.34.055-2.019.055a25.4,25.4,0,0,1-3.415-.2c-2.258-.331-3.3-1.579-3.3-3.048a5.608,5.608,0,0,1,1.725-3.543l1.194.515a4.339,4.339,0,0,0-1.561,2.882c0,2.129,3.12,2.129,5.029,2.129.772,0,1.6-.037,2.368-.092Zm-8.5-11.215a59.966,59.966,0,0,0,8-.7l.109,1.286a69.528,69.528,0,0,1-8.076.678Z" fill="#fff"/><path d="M1620.551,806.946h1.249c0,3.285.422,10.408,7.838,14.813a6.775,6.775,0,0,0-.991,1.046,16.277,16.277,0,0,1-7.564-10.682c-1.321,4.9-3.708,8.572-7.562,10.7a8.363,8.363,0,0,0-1.028-.936c4.057-2.111,6.424-6.021,7.582-11.363l.752.183a19.009,19.009,0,0,1-.239-2.5h-4.68v-1.248h4.643Z" fill="#fff"/><path d="M1631.147,810.011a17.919,17.919,0,0,0,3.451-.275c.037-1.1.056-1.707.129-3.378l1.891.147c-.038.2-.2.33-.515.368-.073.807-.147,1.945-.183,2.625l.569.219a9.565,9.565,0,0,0-.735,2.625c2.02-1.89,4.259-3.23,5.783-3.23,1.725,0,2.588,1.211,2.588,3.341,0,.238-.018.477-.037.715-.128,1.616-.311,3.911-.311,5.378,0,1.1.128,1.69.9,1.69a4.986,4.986,0,0,0,2.442-1.231,12.661,12.661,0,0,0,.256,1.4,5.552,5.552,0,0,1-2.881,1.193c-1.542,0-2.057-.918-2.057-2.827,0-.954.331-6,.331-6.02,0-1.6-.551-2.314-1.45-2.314-1.377,0-3.69,1.487-5.6,3.506,0,2.662,0,5.93.019,8.426h-1.285c.018-1.065,0-6.3.018-7.471a19.12,19.12,0,0,1-3.341,4.424l-.661-1.156a18.625,18.625,0,0,0,4.038-5.544c0-.533.019-1.029.037-1.616a18.917,18.917,0,0,1-3.378.312Z" fill="#fff"/><path d="M1654.4,813.866a11.121,11.121,0,0,1,4.552-1.065c2.919,0,4.754,1.707,4.754,4.406,0,3.323-2.918,5.158-6.608,5.158-2.387,0-4.02-.954-4.02-2.57a2.772,2.772,0,0,1,3.01-2.46,3.874,3.874,0,0,1,3.745,3.323,3.6,3.6,0,0,0,2.533-3.433c0-1.982-1.468-3.249-3.782-3.249a10.463,10.463,0,0,0-6.663,2.4c-.55.515-1.266,1.286-1.761,1.855l-.937-.937c1.652-1.725,6.9-6.736,9.4-9.067-1.065.146-4.737.293-6.83.367a.611.611,0,0,1-.384.276l-.148-1.561c2.479-.019,7.215-.2,8.555-.4l.275-.128.973,1.192a.879.879,0,0,1-.441.166c-1.3,1.065-4.791,4.332-6.222,5.708Zm2.533,7.342a8.038,8.038,0,0,0,1.67-.183,2.831,2.831,0,0,0-2.606-2.607c-.955,0-1.8.514-1.8,1.359C1654.2,820.9,1655.721,821.208,1656.933,821.208Z" fill="#fff"/></g></svg>