<svg xmlns="http://www.w3.org/2000/svg" xmlns:xlink="http://www.w3.org/1999/xlink" width="368.164" height="56.298" viewBox="0 0 368.164 56.298"><defs><linearGradient id="a" x1="0.5" y1="1" x2="0.5" gradientUnits="objectBoundingBox"><stop offset="0" stop-color="#87cdc7"/><stop offset="1" stop-color="#00a99d"/></linearGradient></defs><g transform="translate(-175.657 -788.428)"><path d="M517.538,792.16H201.94a26.283,26.283,0,0,0,0,52.566h315.6a26.283,26.283,0,0,0,0-52.566Z" fill="#00a99d"/><path d="M517.538,788.428H201.94a26.283,26.283,0,0,0,0,52.566h315.6a26.283,26.283,0,0,0,0-52.566Z" fill="#00a99d"/><path d="M517.538,788.428H201.94a26.283,26.283,0,0,0,0,52.566h315.6a26.283,26.283,0,0,0,0-52.566Z" fill="url(#a)"/><path d="M517.539,836.645H201.94a24.682,24.682,0,0,1-24.613-23.293c-.025.45-.039.9-.039,1.359a24.679,24.679,0,0,0,24.652,24.652h315.6a24.68,24.68,0,0,0,24.652-24.652c0-.456-.015-.909-.04-1.359A24.681,24.681,0,0,1,517.539,836.645Z" fill="#fff"/></g></svg>