<svg xmlns="http://www.w3.org/2000/svg" xmlns:xlink="http://www.w3.org/1999/xlink" width="368.164" height="56.298" viewBox="0 0 368.164 56.298"><defs><linearGradient id="a" x1="0.492" y1="1" x2="0.492" gradientUnits="objectBoundingBox"><stop offset="0" stop-color="#99d7be"/><stop offset="1" stop-color="#34ab8f"/></linearGradient></defs><g transform="translate(-1406.208 -788.428)"><path d="M1748.09,792.16h-315.6a26.283,26.283,0,0,0,0,52.566h315.6a26.283,26.283,0,0,0,0-52.566Z" fill="#34ab8f"/><path d="M1748.09,788.428h-315.6a26.283,26.283,0,0,0,0,52.566h315.6a26.283,26.283,0,0,0,0-52.566Z" fill="#34ab8f"/><path d="M1748.09,788.428h-315.6a26.283,26.283,0,0,0,0,52.566h315.6a26.283,26.283,0,0,0,0-52.566Z" fill="url(#a)"/><path d="M1748.09,836.645h-315.6a24.681,24.681,0,0,1-24.612-23.293c-.024.451-.039.9-.039,1.359a24.68,24.68,0,0,0,24.651,24.652h315.6a24.679,24.679,0,0,0,24.651-24.652c0-.456-.014-.908-.039-1.359A24.681,24.681,0,0,1,1748.09,836.645Z" fill="#fff"/></g></svg>