<svg xmlns="http://www.w3.org/2000/svg" xmlns:xlink="http://www.w3.org/1999/xlink" width="477.222" height="97.418" viewBox="0 0 477.222 97.418"><defs><linearGradient id="a" y1="0.5" x2="1" y2="0.5" gradientUnits="objectBoundingBox"><stop offset="0" stop-color="#b36b01"/><stop offset="0.2" stop-color="#cc8f01"/><stop offset="0.3" stop-color="#b36b01"/><stop offset="0.6" stop-color="#ffd900"/><stop offset="0.7" stop-color="#fff295"/><stop offset="1" stop-color="#ffd900"/></linearGradient><linearGradient id="b" y1="0.5" x2="1" y2="0.5" gradientUnits="objectBoundingBox"><stop offset="0" stop-color="#ffd900"/><stop offset="0.3" stop-color="#fff295"/><stop offset="0.4" stop-color="#ffd900"/><stop offset="0.7" stop-color="#b36b01"/><stop offset="0.8" stop-color="#cc8f01"/><stop offset="1" stop-color="#b36b01"/></linearGradient><linearGradient id="c" x1="-0.022" y1="0.5" x2="1.066" y2="0.5" gradientUnits="objectBoundingBox"><stop offset="0" stop-color="#993d01"/><stop offset="0.2" stop-color="#b35901"/><stop offset="0.3" stop-color="#993d01"/><stop offset="0.6" stop-color="#e69500"/><stop offset="0.7" stop-color="#e4ad78"/><stop offset="1" stop-color="#e69500"/></linearGradient><linearGradient id="d" x1="-0.022" y1="0.5" x2="1.07" y2="0.5" xlink:href="#c"/><linearGradient id="e" x1="-0.07" y1="0.5" x2="1.022" y2="0.5" gradientUnits="objectBoundingBox"><stop offset="0" stop-color="#e69500"/><stop offset="0.3" stop-color="#e4ad78"/><stop offset="0.4" stop-color="#e69500"/><stop offset="0.7" stop-color="#993d01"/><stop offset="0.8" stop-color="#b35901"/><stop offset="1" stop-color="#993d01"/></linearGradient><linearGradient id="f" x1="-0.066" y1="0.5" x2="1.022" y2="0.5" xlink:href="#e"/><linearGradient id="g" y1="0.5" x2="1" y2="0.5" gradientUnits="objectBoundingBox"><stop offset="0" stop-color="#683f00"/><stop offset="0.45" stop-color="#995c01"/><stop offset="0.65" stop-color="#b36b01"/><stop offset="1" stop-color="#ffd900"/></linearGradient><linearGradient id="h" y1="0.5" x2="1" y2="0.5" gradientUnits="objectBoundingBox"><stop offset="0" stop-color="#ffd900"/><stop offset="0.35" stop-color="#b36b01"/><stop offset="0.55" stop-color="#995c01"/><stop offset="1" stop-color="#683f00"/></linearGradient><linearGradient id="i" x1="-58.573" y1="0.5" x2="-57.381" y2="0.5" gradientUnits="objectBoundingBox"><stop offset="0" stop-color="#e69500"/><stop offset="0.35" stop-color="#993d01"/><stop offset="0.55" stop-color="#803300"/><stop offset="1" stop-color="#4f2001"/></linearGradient><linearGradient id="j" x1="-0.121" y1="0.5" x2="1.071" y2="0.5" xlink:href="#i"/><linearGradient id="k" y1="0.5" x2="1" y2="0.5" gradientUnits="objectBoundingBox"><stop offset="0" stop-color="#d99801"/><stop offset="0.05" stop-color="#ffd900"/><stop offset="0.1" stop-color="#f2b600"/><stop offset="0.2" stop-color="#ffe501"/><stop offset="0.31" stop-color="#fff971"/><stop offset="0.5" stop-color="#fee661"/><stop offset="0.65" stop-color="#ffffd9"/><stop offset="0.8" stop-color="#ffff73"/><stop offset="0.9" stop-color="#f2b600"/><stop offset="0.95" stop-color="#ffd900"/><stop offset="1" stop-color="#d99801"/></linearGradient><linearGradient id="l" x1="-0.006" y1="0.5" x2="1.006" y2="0.5" gradientUnits="objectBoundingBox"><stop offset="0" stop-color="#b35901"/><stop offset="0.05" stop-color="#d98d00"/><stop offset="0.1" stop-color="#b36200"/><stop offset="0.2" stop-color="#d99801"/><stop offset="0.31" stop-color="#d7a857"/><stop offset="0.5" stop-color="#d7984a"/><stop offset="0.65" stop-color="#d7b88c"/><stop offset="0.8" stop-color="#d8ae58"/><stop offset="0.9" stop-color="#b36200"/><stop offset="0.95" stop-color="#d98d00"/><stop offset="1" stop-color="#b35901"/></linearGradient></defs><g transform="translate(-1287.568 -1201.884)"><path d="M1764.79,1295.177c-40.521-5.165-65.821,4.125-65.821,4.125v-61.448s25.3-9.291,65.821-4.126l-22.46,29.421Z" fill="#be6917"/><path d="M1287.568,1295.177c40.521-5.165,65.821,4.125,65.821,4.125v-61.448s-25.3-9.291-65.821-4.126l22.46,29.421Z" fill="#be6917"/><path d="M1764.79,1294.3c-40.521-5.165-65.821,4.125-65.821,4.125v-61.446s25.3-9.291,65.821-4.125l-22.46,29.42Z" fill="url(#a)"/><path d="M1287.568,1294.3c40.521-5.165,65.821,4.125,65.821,4.125v-61.446s-25.3-9.291-65.821-4.125l22.46,29.42Z" fill="url(#b)"/><path d="M1760.3,1238.732l1.56-2.04c-35.953-3.992-59.68,3.322-62.886,4.392v2.329l.38-.14C1699.591,1243.188,1723.043,1234.841,1760.3,1238.732Z" fill="url(#c)"/><path d="M1698.969,1292v2.327l.38-.138c.242-.084,24.255-8.625,62.276-4.4l-1.669-2.388C1725.068,1283.859,1702.119,1290.943,1698.969,1292Z" fill="url(#d)"/><path d="M1292.407,1287.4l-1.674,2.388c37.961-4.227,62.034,4.306,62.281,4.4l.375.138V1292C1350.239,1290.936,1327.283,1283.847,1292.407,1287.4Z" fill="url(#e)"/><path d="M1353.014,1243.273l.375.14v-2.329c-3.206-1.077-26.94-8.4-62.886-4.392l1.56,2.04C1329.25,1234.841,1352.767,1243.184,1353.014,1243.273Z" fill="url(#f)"/><path d="M1698.969,1299.3a99.369,99.369,0,0,0,13.675-8.281c6.2-4.646,6.661-9.26,6.661-9.26v-61.448s-.46,4.616-6.661,9.261a99.2,99.2,0,0,1-13.675,8.28Z" fill="#d7a35d"/><path d="M1698.969,1298.424a99.131,99.131,0,0,0,13.675-8.279c6.2-4.645,6.661-9.262,6.661-9.262v-61.446s-.46,4.614-6.661,9.259a99.316,99.316,0,0,1-13.675,8.282Z" fill="url(#g)"/><path d="M1353.389,1299.3a99.369,99.369,0,0,1-13.675-8.281c-6.2-4.646-6.66-9.26-6.66-9.26v-61.448s.459,4.616,6.66,9.261a99.2,99.2,0,0,0,13.675,8.28Z" fill="#d7a35d"/><path d="M1353.389,1298.424a99.131,99.131,0,0,1-13.675-8.279c-6.2-4.645-6.66-9.262-6.66-9.262v-61.446s.459,4.614,6.66,9.259a99.316,99.316,0,0,0,13.675,8.282Z" fill="url(#h)"/><path d="M1710.587,1285.045c5.742-4.3,8.585-11.485,8.722-11.86v4.928a28.836,28.836,0,0,1-7.4,8.686,67.924,67.924,0,0,1-12.5,7.362l-.436.186v-2.4A67.659,67.659,0,0,0,1710.587,1285.045Z" fill="url(#i)"/><path d="M1341.776,1285.045c-5.739-4.3-8.582-11.485-8.722-11.86v4.928a28.838,28.838,0,0,0,7.4,8.686,68.026,68.026,0,0,0,12.5,7.362l.436.186v-2.4A67.736,67.736,0,0,1,1341.776,1285.045Z" fill="url(#j)"/><path d="M1719.305,1281.761c0-9.7-86.459-17.553-193.12-17.553s-193.131,7.856-193.131,17.553v-61.448c0-9.695,86.458-17.553,193.131-17.553s193.12,7.858,193.12,17.553Z" fill="#be6917"/><path d="M1719.305,1280.883c0-9.694-86.459-17.553-193.12-17.553s-193.131,7.859-193.131,17.553v-61.446c0-9.7,86.458-17.553,193.131-17.553s193.12,7.856,193.12,17.553Z" fill="url(#k)"/><path d="M1333.054,1272.41v2.739c5.274-7.561,83.1-15.992,193.131-15.992s187.845,8.431,193.12,15.992v-2.739c-16.049-10.06-107.031-15.448-193.12-15.448S1349.1,1262.35,1333.054,1272.41Z" fill="url(#l)"/><path d="M1526.185,1206.05c-86.1,0-177.083,5.391-193.131,15.448v2.741c5.274-7.56,83.1-15.992,193.131-15.992s187.845,8.432,193.12,15.992V1221.5C1703.256,1211.441,1612.274,1206.05,1526.185,1206.05Z" fill="url(#l)"/></g></svg>