<svg xmlns="http://www.w3.org/2000/svg" width="23.74" height="42.102" viewBox="0 0 23.74 42.102"><g transform="translate(-380.365 -521.441)"><g transform="translate(-93 212)"><path d="M481.413,347.542a1.938,1.938,0,0,1-.286-.01.537.537,0,0,1-.452-.622,3.047,3.047,0,0,1,.142-.552c.216-.657.388-1.331.625-1.976a19.438,19.438,0,0,1,.733-2.314.384.384,0,0,0,.05-.134,15.5,15.5,0,0,1,.6-2.193,22.428,22.428,0,0,1,.659-2.182c.216-.652.512-1.276.682-1.945a.444.444,0,0,1,.093-.191,3.063,3.063,0,0,0,.523-1.224c.338-.992.6-2.006.862-3.021a20.523,20.523,0,0,1,.833-2.429,12.378,12.378,0,0,1,.63-1.591,6.909,6.909,0,0,0,.486-1.559c.18-.64.4-1.266.576-1.909.105-.39.247-.771.381-1.153.1-.27.166-.546.246-.82.26-.883.418-1.791.713-2.669a15.6,15.6,0,0,0,.8-2.658,2.537,2.537,0,0,1,.369-1.076,2.162,2.162,0,0,0,.173-.615,1.205,1.205,0,0,1,.22-.523.928.928,0,0,1,.936-.365,1.88,1.88,0,0,1,.837.374.558.558,0,0,1,.212.628,5.327,5.327,0,0,1-.651,1.88.81.81,0,0,0-.1.413,4.206,4.206,0,0,1-.538,1.9.264.264,0,0,0-.047.133,2.422,2.422,0,0,1-.411,1.127,10.326,10.326,0,0,0-.606,1.6c-.4,1.169-.833,2.33-1.253,3.493a1.2,1.2,0,0,0-.089.194,28.347,28.347,0,0,1-.9,2.994c-.208.781-.581,1.5-.763,2.3a3.075,3.075,0,0,1-.393,1,.971.971,0,0,0-.141.473,1.121,1.121,0,0,1-.217.666,1.175,1.175,0,0,0-.126.48c-.1.441-.26.873-.351,1.31a20.5,20.5,0,0,1-1.015,2.43c-.3.88-.618,1.753-.839,2.659-.176.718-.41,1.422-.631,2.129-.1.319-.192.637-.26.965a6.037,6.037,0,0,1-.33,1.02c-.323.794-.464,1.65-.85,2.421a1.372,1.372,0,0,0-.083.562.565.565,0,0,1-.48.543A1.783,1.783,0,0,1,481.413,347.542Z" fill="#145629" stroke="#fff" stroke-width="8"/><path d="M477.888,346.658c-.434-.049-.578-.228-.5-.676a5.439,5.439,0,0,1,.261-1.112c.353-.865.537-1.778.82-2.662.253-.8.593-1.565.807-2.368s.447-1.6.7-2.384c.521-1.585,1.016-3.176,1.467-4.781.109-.39.25-.771.386-1.152a13.576,13.576,0,0,0,.555-2.071,10.723,10.723,0,0,1,.318-1.094c.445-1.486.831-2.994,1.355-4.451.4-1.123.671-2.284,1.089-3.4a6.966,6.966,0,0,0,.31-1.246,5.114,5.114,0,0,1,.211-.755c.232-.7.453-1.4.688-2.1a5.49,5.49,0,0,1,.4-.988,3.285,3.285,0,0,0,.428-1.207.905.905,0,0,1,.454-.7.454.454,0,0,1,.268-.066c.457.066.852.7.626,1.08a10.352,10.352,0,0,0-.4,1.284,8.963,8.963,0,0,0-.318,1.243c-.306,1.1-.466,2.236-.789,3.334-.168.571-.33,1.143-.517,1.708-.157.474-.256.966-.385,1.449a14.339,14.339,0,0,1-.5,1.486c-.517,1.332-.969,2.689-1.436,4.04a10.111,10.111,0,0,0-.278,1.329,24.593,24.593,0,0,1-.708,2.468c-.361,1.159-.769,2.3-1.151,3.457-.142.43-.354.827-.479,1.27a47.338,47.338,0,0,1-1.49,4.63,4.1,4.1,0,0,0-.189.613,16.936,16.936,0,0,1-1.449,3.483A.5.5,0,0,1,477.888,346.658Z" fill="#145629" stroke="#fff" stroke-width="8"/></g><g transform="translate(-93 212)"><path d="M481.413,347.542a1.938,1.938,0,0,1-.286-.01.537.537,0,0,1-.452-.622,3.047,3.047,0,0,1,.142-.552c.216-.657.388-1.331.625-1.976a19.438,19.438,0,0,1,.733-2.314.384.384,0,0,0,.05-.134,15.5,15.5,0,0,1,.6-2.193,22.428,22.428,0,0,1,.659-2.182c.216-.652.512-1.276.682-1.945a.444.444,0,0,1,.093-.191,3.063,3.063,0,0,0,.523-1.224c.338-.992.6-2.006.862-3.021a20.523,20.523,0,0,1,.833-2.429,12.378,12.378,0,0,1,.63-1.591,6.909,6.909,0,0,0,.486-1.559c.18-.64.4-1.266.576-1.909.105-.39.247-.771.381-1.153.1-.27.166-.546.246-.82.26-.883.418-1.791.713-2.669a15.6,15.6,0,0,0,.8-2.658,2.537,2.537,0,0,1,.369-1.076,2.162,2.162,0,0,0,.173-.615,1.205,1.205,0,0,1,.22-.523.928.928,0,0,1,.936-.365,1.88,1.88,0,0,1,.837.374.558.558,0,0,1,.212.628,5.327,5.327,0,0,1-.651,1.88.81.81,0,0,0-.1.413,4.206,4.206,0,0,1-.538,1.9.264.264,0,0,0-.047.133,2.422,2.422,0,0,1-.411,1.127,10.326,10.326,0,0,0-.606,1.6c-.4,1.169-.833,2.33-1.253,3.493a1.2,1.2,0,0,0-.089.194,28.347,28.347,0,0,1-.9,2.994c-.208.781-.581,1.5-.763,2.3a3.075,3.075,0,0,1-.393,1,.971.971,0,0,0-.141.473,1.121,1.121,0,0,1-.217.666,1.175,1.175,0,0,0-.126.48c-.1.441-.26.873-.351,1.31a20.5,20.5,0,0,1-1.015,2.43c-.3.88-.618,1.753-.839,2.659-.176.718-.41,1.422-.631,2.129-.1.319-.192.637-.26.965a6.037,6.037,0,0,1-.33,1.02c-.323.794-.464,1.65-.85,2.421a1.372,1.372,0,0,0-.083.562.565.565,0,0,1-.48.543A1.783,1.783,0,0,1,481.413,347.542Z" fill="#145629"/><path d="M477.888,346.658c-.434-.049-.578-.228-.5-.676a5.439,5.439,0,0,1,.261-1.112c.353-.865.537-1.778.82-2.662.253-.8.593-1.565.807-2.368s.447-1.6.7-2.384c.521-1.585,1.016-3.176,1.467-4.781.109-.39.25-.771.386-1.152a13.576,13.576,0,0,0,.555-2.071,10.723,10.723,0,0,1,.318-1.094c.445-1.486.831-2.994,1.355-4.451.4-1.123.671-2.284,1.089-3.4a6.966,6.966,0,0,0,.31-1.246,5.114,5.114,0,0,1,.211-.755c.232-.7.453-1.4.688-2.1a5.49,5.49,0,0,1,.4-.988,3.285,3.285,0,0,0,.428-1.207.905.905,0,0,1,.454-.7.454.454,0,0,1,.268-.066c.457.066.852.7.626,1.08a10.352,10.352,0,0,0-.4,1.284,8.963,8.963,0,0,0-.318,1.243c-.306,1.1-.466,2.236-.789,3.334-.168.571-.33,1.143-.517,1.708-.157.474-.256.966-.385,1.449a14.339,14.339,0,0,1-.5,1.486c-.517,1.332-.969,2.689-1.436,4.04a10.111,10.111,0,0,0-.278,1.329,24.593,24.593,0,0,1-.708,2.468c-.361,1.159-.769,2.3-1.151,3.457-.142.43-.354.827-.479,1.27a47.338,47.338,0,0,1-1.49,4.63,4.1,4.1,0,0,0-.189.613,16.936,16.936,0,0,1-1.449,3.483A.5.5,0,0,1,477.888,346.658Z" fill="#145629"/></g></g></svg>