<svg xmlns="http://www.w3.org/2000/svg" width="23.12" height="41.982" viewBox="0 0 23.12 41.982"><g transform="translate(-423.487 -409.306)"><g transform="translate(50 97)"><path d="M381.962,316.35c.117.019.164.03.211.033.533.039.762.33.667.883a.247.247,0,0,0,.057.253.707.707,0,0,1,.281.757.294.294,0,0,0,.113.317.667.667,0,0,1,.233.58,1.918,1.918,0,0,0,.282,1.01,8.711,8.711,0,0,1,.692,2.158.78.78,0,0,1,.035.283,1.328,1.328,0,0,0,.312,1.041,4.257,4.257,0,0,1,.468,1.335,3.345,3.345,0,0,0,.406,1.132.4.4,0,0,1,.067.4.586.586,0,0,0,.157.716,2.152,2.152,0,0,1,.362.677c.134.329.212.676.378,1a3.847,3.847,0,0,1,.33.912,4.4,4.4,0,0,1,.35,1.939c-.022.1.041.177.088.261a3.224,3.224,0,0,1,.459,1.194.51.51,0,0,0,.1.256,2.381,2.381,0,0,1,.479,1.249.7.7,0,0,0,.082.272,2.821,2.821,0,0,1,.282,1.1.744.744,0,0,0,.058.279,7.87,7.87,0,0,1,.443,1.636,4.655,4.655,0,0,1,.322,1.53.365.365,0,0,0,.074.2,10.122,10.122,0,0,1,.753,2.145,8.646,8.646,0,0,0,.459,1.483c.128.22.094.5.2.753a6.281,6.281,0,0,1,.644,1.653,3.993,3.993,0,0,1,.6,1.582,4.438,4.438,0,0,1,.184.982.732.732,0,0,1-.545.863.323.323,0,0,1-.383-.106,1.215,1.215,0,0,1-.254-.507c-.064-.255-.121-.512-.181-.768a5.752,5.752,0,0,0-.642-1.65,7.976,7.976,0,0,1-.569-1.23,7.711,7.711,0,0,0-.582-1.462.817.817,0,0,1-.08-.273,17.812,17.812,0,0,0-.818-2.425,19.216,19.216,0,0,1-.664-2.033c-.222-.945-.587-1.852-.728-2.816a1.1,1.1,0,0,0-.108-.328c-.208-.428-.359-.882-.54-1.317-.229-.552-.368-1.124-.562-1.681a8.738,8.738,0,0,1-.361-1.3,9.4,9.4,0,0,0-.516-1.624c-.348-.911-.74-1.806-1.089-2.717-.248-.645-.462-1.3-.681-1.96-.293-.878-.576-1.759-.864-2.638a1.473,1.473,0,0,1-.089-.273c-.1-.856-.625-1.585-.724-2.44a4.728,4.728,0,0,1-.389-1.291c-.124-.408-.252-.816-.357-1.229-.094-.37-.065-.338.289-.563A1.862,1.862,0,0,1,381.962,316.35Z" fill="#145629" stroke="#fff" stroke-width="8"/><path d="M389.459,349.372c-.025.362-.122.657-.457.782a.911.911,0,0,1-1.011-.1,1.617,1.617,0,0,1-.494-.694c-.217-.7-.542-1.365-.7-2.1a4.021,4.021,0,0,0-.577-1.529,2.553,2.553,0,0,1-.324-1.017,4.409,4.409,0,0,0-.4-1.144,13.226,13.226,0,0,1-.831-2.2,9.367,9.367,0,0,0-.541-1.476,4.951,4.951,0,0,1-.242-.736c-.176-.539-.37-1.074-.584-1.6a22.024,22.024,0,0,1-.79-2.524c-.175-.642-.426-1.263-.65-1.891a5.385,5.385,0,0,1-.376-1.291.355.355,0,0,0-.024-.141,7.152,7.152,0,0,1-.618-1.741c-.248-.844-.568-1.667-.826-2.508a4.482,4.482,0,0,0-.278-.733,2.4,2.4,0,0,1-.23-.6,1.611,1.611,0,0,0-.181-.462,10.961,10.961,0,0,1-1.086-2.861c-.219-.9-.469-1.792-.714-2.685a.479.479,0,0,1,.4-.675c.187-.032.376-.054.564-.08a.363.363,0,0,1,.417.2,4.961,4.961,0,0,1,.252.592c.186.567.376,1.134.53,1.711a10.852,10.852,0,0,0,.565,1.542,6.608,6.608,0,0,1,.588,1.9,3.106,3.106,0,0,0,.209.758c.439,1.159.911,2.3,1.285,3.489a9.418,9.418,0,0,0,.787,1.6,9.162,9.162,0,0,1,.744,1.848c.086.3.17.59.271.883a8.124,8.124,0,0,1,.4,1.52,16.908,16.908,0,0,0,.5,2.008c.071.274.241.522.32.8a21.572,21.572,0,0,0,1.217,3.284c.232.5.313,1.047.539,1.553.126.283.291.545.408.83.382.925.764,1.85,1.086,2.8.13.383.284.76.443,1.133a7.838,7.838,0,0,1,.363,1.311C389.442,349.214,389.449,349.31,389.459,349.372Z" fill="#145629" stroke="#fff" stroke-width="8"/></g><g transform="translate(50 97)"><path d="M381.962,316.35c.117.019.164.03.211.033.533.039.762.33.667.883a.247.247,0,0,0,.057.253.707.707,0,0,1,.281.757.294.294,0,0,0,.113.317.667.667,0,0,1,.233.58,1.918,1.918,0,0,0,.282,1.01,8.711,8.711,0,0,1,.692,2.158.78.78,0,0,1,.035.283,1.328,1.328,0,0,0,.312,1.041,4.257,4.257,0,0,1,.468,1.335,3.345,3.345,0,0,0,.406,1.132.4.4,0,0,1,.067.4.586.586,0,0,0,.157.716,2.152,2.152,0,0,1,.362.677c.134.329.212.676.378,1a3.847,3.847,0,0,1,.33.912,4.4,4.4,0,0,1,.35,1.939c-.022.1.041.177.088.261a3.224,3.224,0,0,1,.459,1.194.51.51,0,0,0,.1.256,2.381,2.381,0,0,1,.479,1.249.7.7,0,0,0,.082.272,2.821,2.821,0,0,1,.282,1.1.744.744,0,0,0,.058.279,7.87,7.87,0,0,1,.443,1.636,4.655,4.655,0,0,1,.322,1.53.365.365,0,0,0,.074.2,10.122,10.122,0,0,1,.753,2.145,8.646,8.646,0,0,0,.459,1.483c.128.22.094.5.2.753a6.281,6.281,0,0,1,.644,1.653,3.993,3.993,0,0,1,.6,1.582,4.438,4.438,0,0,1,.184.982.732.732,0,0,1-.545.863.323.323,0,0,1-.383-.106,1.215,1.215,0,0,1-.254-.507c-.064-.255-.121-.512-.181-.768a5.752,5.752,0,0,0-.642-1.65,7.976,7.976,0,0,1-.569-1.23,7.711,7.711,0,0,0-.582-1.462.817.817,0,0,1-.08-.273,17.812,17.812,0,0,0-.818-2.425,19.216,19.216,0,0,1-.664-2.033c-.222-.945-.587-1.852-.728-2.816a1.1,1.1,0,0,0-.108-.328c-.208-.428-.359-.882-.54-1.317-.229-.552-.368-1.124-.562-1.681a8.738,8.738,0,0,1-.361-1.3,9.4,9.4,0,0,0-.516-1.624c-.348-.911-.74-1.806-1.089-2.717-.248-.645-.462-1.3-.681-1.96-.293-.878-.576-1.759-.864-2.638a1.473,1.473,0,0,1-.089-.273c-.1-.856-.625-1.585-.724-2.44a4.728,4.728,0,0,1-.389-1.291c-.124-.408-.252-.816-.357-1.229-.094-.37-.065-.338.289-.563A1.862,1.862,0,0,1,381.962,316.35Z" fill="#145629"/><path d="M389.459,349.372c-.025.362-.122.657-.457.782a.911.911,0,0,1-1.011-.1,1.617,1.617,0,0,1-.494-.694c-.217-.7-.542-1.365-.7-2.1a4.021,4.021,0,0,0-.577-1.529,2.553,2.553,0,0,1-.324-1.017,4.409,4.409,0,0,0-.4-1.144,13.226,13.226,0,0,1-.831-2.2,9.367,9.367,0,0,0-.541-1.476,4.951,4.951,0,0,1-.242-.736c-.176-.539-.37-1.074-.584-1.6a22.024,22.024,0,0,1-.79-2.524c-.175-.642-.426-1.263-.65-1.891a5.385,5.385,0,0,1-.376-1.291.355.355,0,0,0-.024-.141,7.152,7.152,0,0,1-.618-1.741c-.248-.844-.568-1.667-.826-2.508a4.482,4.482,0,0,0-.278-.733,2.4,2.4,0,0,1-.23-.6,1.611,1.611,0,0,0-.181-.462,10.961,10.961,0,0,1-1.086-2.861c-.219-.9-.469-1.792-.714-2.685a.479.479,0,0,1,.4-.675c.187-.032.376-.054.564-.08a.363.363,0,0,1,.417.2,4.961,4.961,0,0,1,.252.592c.186.567.376,1.134.53,1.711a10.852,10.852,0,0,0,.565,1.542,6.608,6.608,0,0,1,.588,1.9,3.106,3.106,0,0,0,.209.758c.439,1.159.911,2.3,1.285,3.489a9.418,9.418,0,0,0,.787,1.6,9.162,9.162,0,0,1,.744,1.848c.086.3.17.59.271.883a8.124,8.124,0,0,1,.4,1.52,16.908,16.908,0,0,0,.5,2.008c.071.274.241.522.32.8a21.572,21.572,0,0,0,1.217,3.284c.232.5.313,1.047.539,1.553.126.283.291.545.408.83.382.925.764,1.85,1.086,2.8.13.383.284.76.443,1.133a7.838,7.838,0,0,1,.363,1.311C389.442,349.214,389.449,349.31,389.459,349.372Z" fill="#145629"/></g></g></svg>