<svg xmlns="http://www.w3.org/2000/svg" xmlns:xlink="http://www.w3.org/1999/xlink" width="41.13" height="41.13" viewBox="0 0 41.13 41.13"><defs><linearGradient id="a" y1="0.5" x2="1" y2="0.5" gradientUnits="objectBoundingBox"><stop offset="0" stop-color="#a8744f"/><stop offset="0.133" stop-color="#caa88c"/><stop offset="0.21" stop-color="#dcc3ac"/><stop offset="0.446" stop-color="#531802"/><stop offset="0.667" stop-color="#995f3a"/><stop offset="1" stop-color="#a8744f"/></linearGradient><linearGradient id="b" y1="0.5" x2="1" y2="0.5" gradientUnits="objectBoundingBox"><stop offset="0" stop-color="#e1a934"/><stop offset="0.111" stop-color="#eccb5b"/><stop offset="0.21" stop-color="#f5e77b"/><stop offset="0.446" stop-color="#883e07"/><stop offset="0.667" stop-color="#e68a37"/><stop offset="1" stop-color="#e1a934"/></linearGradient><linearGradient id="c" x1="0.161" y1="0.158" x2="0.842" y2="0.844" gradientUnits="objectBoundingBox"><stop offset="0" stop-color="#cbc0b2"/><stop offset="0.064" stop-color="#d8d0c6"/><stop offset="0.163" stop-color="#e9e4df"/><stop offset="0.267" stop-color="#f5f3f0"/><stop offset="0.377" stop-color="#fcfcfb"/><stop offset="0.504" stop-color="#fff"/><stop offset="0.628" stop-color="#fcfcfb"/><stop offset="0.737" stop-color="#f5f3f0"/><stop offset="0.84" stop-color="#e9e4df"/><stop offset="0.938" stop-color="#d8d0c6"/><stop offset="1" stop-color="#cbc0b2"/></linearGradient><linearGradient id="d" x1="0.694" x2="0.019" y2="1.764" gradientUnits="objectBoundingBox"><stop offset="0" stop-color="#d6a035"/><stop offset="0.107" stop-color="#e1c159"/><stop offset="0.21" stop-color="#ebdd79"/><stop offset="0.446" stop-color="#813b07"/><stop offset="0.667" stop-color="#dc9f3d"/><stop offset="1" stop-color="#d6a035"/></linearGradient></defs><g transform="translate(-1283.252 -1827.181)"><g transform="translate(0 -1)"><circle cx="19.791" cy="19.791" r="19.791" transform="translate(1284.026 1828.954)" fill="url(#a)"/><circle cx="19.58" cy="19.58" r="19.58" transform="translate(1284.238 1829.166)" fill="url(#b)"/><circle cx="18.274" cy="18.274" r="18.274" transform="translate(1285.543 1830.472)" fill="#4d2007"/><circle cx="18.028" cy="18.028" r="18.028" transform="translate(1283.252 1863.815) rotate(-81.232)" fill="url(#c)"/><path d="M1309.075,1835.808a.5.5,0,0,0-.424.779,1.78,1.78,0,0,1-1.5.286c-.511-.218-.537-.9-.551-1.48l.041,0a.509.509,0,1,0-.171-.031c-.215.552-.762,1.153-1.42,1.043-.749-.125-.936-1.425-1.094-2.22a.506.506,0,1,0-.181.009c-.157.8-.346,2.087-1.092,2.211-.7.118-1.282-.58-1.461-1.159a.5.5,0,1,0-.091.009h.005c-.016.6,0,1.381-.554,1.616a1.872,1.872,0,0,1-1.592-.342.51.51,0,1,0-.033.047,4.474,4.474,0,0,1,1.342,2.628h-.27v.459h7.622v-.459h-.217a4.458,4.458,0,0,1,1.267-2.554.5.5,0,1,0,.374-.844Z" fill="url(#d)"/></g></g></svg>