<svg xmlns="http://www.w3.org/2000/svg" xmlns:xlink="http://www.w3.org/1999/xlink" width="240.256" height="269.249" viewBox="0 0 240.256 269.249"><defs><filter id="a" x="0" y="0" width="240.256" height="269.249" filterUnits="userSpaceOnUse"><feOffset dx="5.669" dy="5.669" input="SourceAlpha"/><feGaussianBlur stdDeviation="2.835" result="b"/><feFlood flood-color="#1a1818" flood-opacity="0.749"/><feComposite operator="in" in2="b"/><feComposite in="SourceGraphic"/></filter></defs><g transform="matrix(0.996, 0.087, -0.087, 0.996, 462.577, -5934.24)"><g transform="matrix(1, -0.09, 0.09, 1, 56.39, 5951.97)" filter="url(#a)"><rect width="223.248" height="252.241" transform="translate(2.83 2.83)" fill="#fff"/></g><path d="M106.627,6193.04c12.26-5.6,12.491-15.787,8.621-19.738-3.268-3.337-8.633-1.5-10.159,2.155-2.137-3.331-7.74-4.212-10.379-.359C91.585,6179.662,93.58,6189.65,106.627,6193.04Z" fill="none" stroke="#636568" stroke-linecap="round" stroke-linejoin="round" stroke-width="1.656"/><path d="M263.751,6170.542c3.31-1.747,23.28-13.668,23.28-13.668l-4.755,19.419a.747.747,0,0,1-1.023.508l-11.443-4.96-6.012-1.023A.148.148,0,0,1,263.751,6170.542Z" fill="none" stroke="#636568" stroke-linecap="round" stroke-linejoin="round" stroke-width="1.656"/><path d="M274.245,6176.669l-.836.964a.283.283,0,0,1-.459-.045l-3.337-5.823,17.418-14.891" fill="none" stroke="#636568" stroke-linecap="round" stroke-linejoin="round" stroke-width="1.656"/><circle cx="0.939" cy="0.939" r="0.939" transform="translate(236.642 6168.433)" fill="#636568"/><circle cx="0.939" cy="0.939" r="0.939" transform="translate(241.844 6167.978)" fill="#636568"/><circle cx="0.939" cy="0.939" r="0.939" transform="translate(247.046 6167.523)" fill="#636568"/><path d="M250.035,6160.326l-15.225,1.332a3.986,3.986,0,0,0-3.613,4.306l.689,7.873a3.985,3.985,0,0,0,4.3,3.613l.939-.082.287,3.279,2.991-3.566,11.008-.963a3.986,3.986,0,0,0,3.613-4.305l-.689-7.874A3.986,3.986,0,0,0,250.035,6160.326Z" fill="none" stroke="#636568" stroke-linecap="round" stroke-linejoin="round" stroke-width="1.656"/></g></svg>