<svg xmlns="http://www.w3.org/2000/svg" xmlns:xlink="http://www.w3.org/1999/xlink" width="240.256" height="269.249" viewBox="0 0 240.256 269.249"><defs><filter id="a" x="0" y="0" width="240.256" height="269.249" filterUnits="userSpaceOnUse"><feOffset dx="5.669" dy="5.669" input="SourceAlpha"/><feGaussianBlur stdDeviation="2.835" result="b"/><feFlood flood-opacity="0.749"/><feComposite operator="in" in2="b"/><feComposite in="SourceGraphic"/></filter></defs><g transform="matrix(0.996, 0.087, -0.087, 0.996, -814.883, -5451.797)"><g transform="matrix(1, -0.09, 0.09, 1, 1286.94, 5360.03)" filter="url(#a)"><path d="M0,0H223.248V252.241H0Z" transform="translate(2.83 2.83)" fill="#fff"/></g><rect width="194.901" height="169.448" transform="matrix(0.996, -0.087, 0.087, 0.996, 1305.363, 5375.49)" fill="#fff" stroke="#000" stroke-miterlimit="10" stroke-width="0.283"/><path d="M1337.178,5601.094c12.26-5.6,12.491-15.786,8.621-19.737-3.268-3.337-8.633-1.5-10.159,2.155-2.137-3.331-7.74-4.212-10.379-.359C1322.136,5587.717,1324.132,5597.705,1337.178,5601.094Z" fill="none" stroke="#645a5e" stroke-linecap="round" stroke-linejoin="round" stroke-width="1.656"/><path d="M1494.3,5578.6c3.309-1.747,23.279-13.668,23.279-13.668l-4.754,19.419a.749.749,0,0,1-1.024.508l-11.443-4.96-6.012-1.023A.147.147,0,0,1,1494.3,5578.6Z" fill="none" stroke="#645a5e" stroke-linecap="round" stroke-linejoin="round" stroke-width="1.656"/><path d="M1504.8,5584.724l-.837.964a.283.283,0,0,1-.459-.045l-3.337-5.823,17.418-14.891" fill="none" stroke="#645a5e" stroke-linecap="round" stroke-linejoin="round" stroke-width="1.656"/><circle cx="0.939" cy="0.939" r="0.939" transform="translate(1467.193 5576.488)" fill="#645a5e"/><circle cx="0.939" cy="0.939" r="0.939" transform="translate(1472.395 5576.033)" fill="#645a5e"/><circle cx="0.939" cy="0.939" r="0.939" transform="translate(1477.597 5575.578)" fill="#645a5e"/><path d="M1480.586,5568.381l-15.225,1.332a3.986,3.986,0,0,0-3.613,4.306l.689,7.873a3.985,3.985,0,0,0,4.3,3.613l.939-.082.287,3.279,2.992-3.566,11.007-.963a3.985,3.985,0,0,0,3.613-4.3l-.689-7.874A3.985,3.985,0,0,0,1480.586,5568.381Z" fill="none" stroke="#645a5e" stroke-linecap="round" stroke-linejoin="round" stroke-width="1.656"/><text transform="translate(1322.035 5565.812) rotate(-5)" font-size="14" font-family="irohamaru-Regular, irohamaru"><tspan x="0" y="0"># タイトルが入ります</tspan></text></g></svg>